M48
; DRILL file KiCad 10.0.3 date 2026-09-11T05:43:45
; FORMAT={-:-/ absolute / metric / decimal}
; #@! TF.CreationDate,2026-09-11T05:43:45+02:00
; #@! TF.GenerationSoftware,Kicad,Pcbnew,10.0.3
; #@! TF.FileFunction,Plated,1,2,PTH
FMAT,2
METRIC
; #@! TA.AperFunction,Plated,PTH,ViaDrill
T1C0.300
; #@! TA.AperFunction,Plated,PTH,ComponentDrill
T2C0.750
; #@! TA.AperFunction,Plated,PTH,ComponentDrill
T3C0.800
; #@! TA.AperFunction,Plated,PTH,ComponentDrill
T4C0.900
; #@! TA.AperFunction,Plated,PTH,ComponentDrill
T5C1.000
%
G90
G05
T1
X45.72Y-62.23
X46.355Y-55.587
X50.8Y-71.12
X50.8Y-71.12
X50.8Y-76.2
X54.61Y-71.12
X54.61Y-76.2
X66.04Y-41.91
X66.04Y-52.07
X72.39Y-54.61
X72.39Y-54.61
X72.39Y-57.15
X83.82Y-54.61
X83.82Y-57.15
X88.9Y-54.61
X88.9Y-57.15
X99.06Y-54.61
X99.06Y-57.15
X99.06Y-57.15
X100.33Y-54.61
X100.33Y-60.96
X110.49Y-52.07
X110.49Y-60.96
T2
X106.68Y-48.26
X106.68Y-49.53
X106.68Y-50.8
T3
X51.435Y-54.61
X51.435Y-62.23
X53.975Y-54.61
X53.975Y-62.23
X56.515Y-54.61
X56.515Y-62.23
X59.055Y-54.61
X59.055Y-62.23
T4
X115.57Y-49.53
X115.57Y-52.07
T5
X50.8Y-49.53
X50.8Y-80.01
X53.34Y-49.53
X53.34Y-80.01
X55.88Y-49.53
X55.88Y-80.01
X58.42Y-80.01
X62.23Y-49.53
X64.77Y-49.53
X67.31Y-49.53
X74.93Y-43.49
X74.93Y-46.99
X86.36Y-49.53
X88.9Y-49.53
X91.44Y-49.53
X93.98Y-49.53
X96.52Y-49.53
X104.14Y-60.96
X104.14Y-63.5
X104.14Y-66.04
X104.14Y-68.58
X104.14Y-71.12
X104.14Y-73.66
M30
