%TF.GenerationSoftware,KiCad,Pcbnew,10.0.3*%
%TF.CreationDate,2026-09-11T05:54:59+02:00*%
%TF.ProjectId,dmx,646d782e-6b69-4636-9164-5f7063625858,rev?*%
%TF.SameCoordinates,Original*%
%TF.FileFunction,Copper,L1,Top*%
%TF.FilePolarity,Positive*%
%FSLAX46Y46*%
G04 Gerber Fmt 4.6, Leading zero omitted, Abs format (unit mm)*
G04 Created by KiCad (PCBNEW 10.0.3) date 2026-09-11 05:54:59*
%MOMM*%
%LPD*%
G01*
G04 APERTURE LIST*
G04 Aperture macros list*
%AMRoundRect*
0 Rectangle with rounded corners*
0 $1 Rounding radius*
0 $2 $3 $4 $5 $6 $7 $8 $9 X,Y pos of 4 corners*
0 Add a 4 corners polygon primitive as box body*
4,1,4,$2,$3,$4,$5,$6,$7,$8,$9,$2,$3,0*
0 Add four circle primitives for the rounded corners*
1,1,$1+$1,$2,$3*
1,1,$1+$1,$4,$5*
1,1,$1+$1,$6,$7*
1,1,$1+$1,$8,$9*
0 Add four rect primitives between the rounded corners*
20,1,$1+$1,$2,$3,$4,$5,0*
20,1,$1+$1,$4,$5,$6,$7,0*
20,1,$1+$1,$6,$7,$8,$9,0*
20,1,$1+$1,$8,$9,$2,$3,0*%
G04 Aperture macros list end*
%TA.AperFunction,ComponentPad*%
%ADD10R,1.700000X1.700000*%
%TD*%
%TA.AperFunction,ComponentPad*%
%ADD11C,1.700000*%
%TD*%
%TA.AperFunction,ComponentPad*%
%ADD12R,1.500000X1.050000*%
%TD*%
%TA.AperFunction,ComponentPad*%
%ADD13O,1.500000X1.050000*%
%TD*%
%TA.AperFunction,ComponentPad*%
%ADD14RoundRect,0.250000X0.550000X-0.550000X0.550000X0.550000X-0.550000X0.550000X-0.550000X-0.550000X0*%
%TD*%
%TA.AperFunction,ComponentPad*%
%ADD15C,1.600000*%
%TD*%
%TA.AperFunction,SMDPad,CuDef*%
%ADD16RoundRect,0.250000X0.625000X-0.400000X0.625000X0.400000X-0.625000X0.400000X-0.625000X-0.400000X0*%
%TD*%
%TA.AperFunction,ComponentPad*%
%ADD17RoundRect,0.250000X0.750000X-0.750000X0.750000X0.750000X-0.750000X0.750000X-0.750000X-0.750000X0*%
%TD*%
%TA.AperFunction,ComponentPad*%
%ADD18C,2.000000*%
%TD*%
%TA.AperFunction,ComponentPad*%
%ADD19R,1.800000X1.800000*%
%TD*%
%TA.AperFunction,ComponentPad*%
%ADD20C,1.800000*%
%TD*%
%TA.AperFunction,SMDPad,CuDef*%
%ADD21RoundRect,0.150000X-0.825000X-0.150000X0.825000X-0.150000X0.825000X0.150000X-0.825000X0.150000X0*%
%TD*%
%TA.AperFunction,SMDPad,CuDef*%
%ADD22RoundRect,0.250000X0.400000X0.625000X-0.400000X0.625000X-0.400000X-0.625000X0.400000X-0.625000X0*%
%TD*%
%TA.AperFunction,SMDPad,CuDef*%
%ADD23RoundRect,0.250000X-0.400000X-0.625000X0.400000X-0.625000X0.400000X0.625000X-0.400000X0.625000X0*%
%TD*%
%TA.AperFunction,ViaPad*%
%ADD24C,0.600000*%
%TD*%
%TA.AperFunction,Conductor*%
%ADD25C,1.000000*%
%TD*%
G04 APERTURE END LIST*
D10*
%TO.P,J1,1,Pin_1_1*%
%TO.N,unconnected-(J1-Pin_1-Pad1)*%
X104140000Y-73660000D03*
D11*
%TO.P,J1,2,Pin_2_2*%
%TO.N,Net-(J1-Pin_2)*%
X104140000Y-71120000D03*
%TO.P,J1,3,Pin_3_3*%
%TO.N,Net-(J1-Pin_3)*%
X104140000Y-68580000D03*
%TO.P,J1,4,Pin_4_4*%
%TO.N,+5V*%
X104140000Y-66040000D03*
%TO.P,J1,5,Pin_5_5*%
%TO.N,unconnected-(J1-Pin_5-Pad5)*%
X104140000Y-63500000D03*
%TO.P,J1,6,Pin_6_6*%
%TO.N,GND*%
X104140000Y-60960000D03*
%TD*%
D12*
%TO.P,Q1,1,E_1*%
%TO.N,GND*%
X106680000Y-50800000D03*
D13*
%TO.P,Q1,2,B_2*%
%TO.N,Net-(Q1-B)*%
X106680000Y-49530000D03*
%TO.P,Q1,3,C_3*%
%TO.N,Net-(D1-K)*%
X106680000Y-48260000D03*
%TD*%
D14*
%TO.P,U2,1,RO_1*%
%TO.N,Net-(U1-PB3)*%
X51435000Y-62230000D03*
D15*
%TO.P,U2,2,~{RE}_2*%
%TO.N,Net-(U1-PA6)*%
X53975000Y-62230000D03*
%TO.P,U2,3,DE_3*%
X56515000Y-62230000D03*
%TO.P,U2,4,DI_4*%
%TO.N,Net-(U1-PB2)*%
X59055000Y-62230000D03*
%TO.P,U2,5,GND_5*%
%TO.N,GND*%
X59055000Y-54610000D03*
%TO.P,U2,6,A_6*%
%TO.N,Net-(J4-Pin_1)*%
X56515000Y-54610000D03*
%TO.P,U2,7,B_7*%
%TO.N,Net-(J4-Pin_2)*%
X53975000Y-54610000D03*
%TO.P,U2,8,VCC_8*%
%TO.N,+5V*%
X51435000Y-54610000D03*
%TD*%
D16*
%TO.P,R5,1*%
%TO.N,Net-(J3-Pin_4)*%
X41910000Y-82830000D03*
%TO.P,R5,2*%
%TO.N,+5V*%
X41910000Y-79730000D03*
%TD*%
%TO.P,R1,1*%
%TO.N,Net-(J1-Pin_2)*%
X95250000Y-71120000D03*
%TO.P,R1,2*%
%TO.N,Net-(J1-Pin_3)*%
X95250000Y-68020000D03*
%TD*%
D10*
%TO.P,J3,1,Pin_1_1*%
%TO.N,+5V*%
X50800000Y-80010000D03*
D11*
%TO.P,J3,2,Pin_2_2*%
%TO.N,GND*%
X53340000Y-80010000D03*
%TO.P,J3,3,Pin_3_3*%
%TO.N,Net-(J3-Pin_3)*%
X55880000Y-80010000D03*
%TO.P,J3,4,Pin_4_4*%
%TO.N,Net-(J3-Pin_4)*%
X58420000Y-80010000D03*
%TD*%
D10*
%TO.P,J4,1,Pin_1_1*%
%TO.N,Net-(J4-Pin_1)*%
X55880000Y-49530000D03*
D11*
%TO.P,J4,2,Pin_2_2*%
%TO.N,Net-(J4-Pin_2)*%
X53340000Y-49530000D03*
%TO.P,J4,3*%
%TO.N,N/C*%
X50800000Y-49530000D03*
%TD*%
D17*
%TO.P,C3,1*%
%TO.N,+5V*%
X74930000Y-46990000D03*
D18*
%TO.P,C3,2*%
%TO.N,GND*%
X74930000Y-43490000D03*
%TD*%
D19*
%TO.P,D1,1,K_1*%
%TO.N,Net-(D1-K)*%
X115570000Y-49530000D03*
D20*
%TO.P,D1,2,A_2*%
%TO.N,Net-(D1-A)*%
X115570000Y-52070000D03*
%TD*%
D21*
%TO.P,U1,1,VCC_1*%
%TO.N,+5V*%
X73790000Y-66040000D03*
%TO.P,U1,2,PA4_2*%
%TO.N,Net-(U1-PA4)*%
X73790000Y-67310000D03*
%TO.P,U1,3,PA5_3*%
%TO.N,Net-(J2-Pin_1)*%
X73790000Y-68580000D03*
%TO.P,U1,4,PA6_4*%
%TO.N,Net-(U1-PA6)*%
X73790000Y-69850000D03*
%TO.P,U1,5,PA7_5*%
%TO.N,unconnected-(U1-PA7-Pad5)*%
X73790000Y-71120000D03*
%TO.P,U1,6,PB3_6*%
%TO.N,Net-(U1-PB3)*%
X73790000Y-72390000D03*
%TO.P,U1,7,PB2_7*%
%TO.N,Net-(U1-PB2)*%
X73790000Y-73660000D03*
%TO.P,U1,8,PB1_8*%
%TO.N,Net-(J3-Pin_3)*%
X78740000Y-73660000D03*
%TO.P,U1,9,PB0_9*%
%TO.N,Net-(J3-Pin_4)*%
X78740000Y-72390000D03*
%TO.P,U1,10,~{RESET}/PA0_10*%
%TO.N,Net-(J1-Pin_2)*%
X78740000Y-71120000D03*
%TO.P,U1,11,PA1_11*%
%TO.N,Net-(J5-Pin_1)*%
X78740000Y-69850000D03*
%TO.P,U1,12,PA2_12*%
%TO.N,Net-(J5-Pin_2)*%
X78740000Y-68580000D03*
%TO.P,U1,13,PA3_13*%
%TO.N,Net-(J5-Pin_3)*%
X78740000Y-67310000D03*
%TO.P,U1,14,GND_14*%
%TO.N,GND*%
X78740000Y-66040000D03*
%TD*%
D10*
%TO.P,J2,1,Pin_1_1*%
%TO.N,Net-(J2-Pin_1)*%
X67310000Y-49530000D03*
D11*
%TO.P,J2,2,Pin_2_2*%
%TO.N,+5V*%
X64770000Y-49530000D03*
%TO.P,J2,3,Pin_3_3*%
%TO.N,GND*%
X62230000Y-49530000D03*
%TD*%
D10*
%TO.P,J5,1,Pin_1_1*%
%TO.N,Net-(J5-Pin_1)*%
X96520000Y-49530000D03*
D11*
%TO.P,J5,2,Pin_2_2*%
%TO.N,Net-(J5-Pin_2)*%
X93980000Y-49530000D03*
%TO.P,J5,3,Pin_3_3*%
%TO.N,Net-(J5-Pin_3)*%
X91440000Y-49530000D03*
%TO.P,J5,4,Pin_4_4*%
%TO.N,+5V*%
X88900000Y-49530000D03*
%TO.P,J5,5,Pin_5_5*%
%TO.N,GND*%
X86360000Y-49530000D03*
%TD*%
D16*
%TO.P,R4,1*%
%TO.N,Net-(J3-Pin_3)*%
X45720000Y-82830000D03*
%TO.P,R4,2*%
%TO.N,+5V*%
X45720000Y-79730000D03*
%TD*%
D22*
%TO.P,R3,1*%
%TO.N,Net-(U1-PA4)*%
X106680000Y-43180000D03*
%TO.P,R3,2*%
%TO.N,Net-(Q1-B)*%
X103580000Y-43180000D03*
%TD*%
%TO.P,R2,1*%
%TO.N,Net-(D1-A)*%
X105690000Y-54610000D03*
%TO.P,R2,2*%
%TO.N,+5V*%
X102590000Y-54610000D03*
%TD*%
D23*
%TO.P,R6,1*%
%TO.N,GND*%
X87350000Y-43180000D03*
%TO.P,R6,2*%
%TO.N,Net-(Q1-B)*%
X90450000Y-43180000D03*
%TD*%
D24*
%TO.N,GND*%
X54610000Y-76200000D03*
X54610000Y-71120000D03*
X110490000Y-60960000D03*
X110490000Y-52070000D03*
%TO.N,+5V*%
X72390000Y-54610000D03*
X83820000Y-54610000D03*
X99060000Y-54610000D03*
X100330000Y-60960000D03*
X50800000Y-71120000D03*
X100330000Y-54610000D03*
X88900000Y-54610000D03*
X46355000Y-55587500D03*
X50800000Y-76200000D03*
X50800000Y-71120000D03*
X72390000Y-54610000D03*
X45720000Y-62230000D03*
%TO.N,Net-(U1-PA4)*%
X72390000Y-57150000D03*
X83820000Y-57150000D03*
X99060000Y-57150000D03*
X88900000Y-57150000D03*
X99060000Y-57150000D03*
%TO.N,Net-(U1-PB2)*%
X66040000Y-52070000D03*
X66040000Y-41910000D03*
%TD*%
%TO.N,GND*%
D25*
X75240000Y-43180000D02*
X74930000Y-43490000D01*
X43180000Y-57150000D02*
X43180000Y-52070000D01*
X99060000Y-45720000D02*
X88900000Y-45720000D01*
X76200000Y-43180000D02*
X80010000Y-43180000D01*
X86360000Y-48260000D02*
X86360000Y-49530000D01*
X74930000Y-43180000D02*
X78740000Y-46990000D01*
X53340000Y-80010000D02*
X53340000Y-77470000D01*
X78120000Y-47610000D02*
X78120000Y-60960000D01*
X46355000Y-58712500D02*
X48260000Y-58712500D01*
X78740000Y-66040000D02*
X78740000Y-61580000D01*
X48260000Y-58712500D02*
X57492500Y-58712500D01*
X57492500Y-58712500D02*
X59055000Y-57150000D01*
X46355000Y-58712500D02*
X44742500Y-58712500D01*
X44742500Y-58712500D02*
X43180000Y-57150000D01*
X59055000Y-57150000D02*
X59055000Y-54610000D01*
X53340000Y-77470000D02*
X54610000Y-76200000D01*
X78740000Y-61580000D02*
X78120000Y-60960000D01*
X88900000Y-45720000D02*
X86360000Y-48260000D01*
X106680000Y-50800000D02*
X109220000Y-50800000D01*
X74930000Y-43180000D02*
X76200000Y-43180000D01*
X54610000Y-71120000D02*
X48260000Y-64770000D01*
X48260000Y-64770000D02*
X48260000Y-58712500D01*
X109220000Y-50800000D02*
X110490000Y-52070000D01*
X43180000Y-52070000D02*
X43180000Y-48260000D01*
X80010000Y-43180000D02*
X86360000Y-49530000D01*
X104140000Y-60960000D02*
X110490000Y-60960000D01*
X106680000Y-50800000D02*
X104140000Y-50800000D01*
X59055000Y-54610000D02*
X59055000Y-52705000D01*
X48260000Y-43180000D02*
X74930000Y-43180000D01*
X76200000Y-43180000D02*
X75240000Y-43180000D01*
X80010000Y-43180000D02*
X87350000Y-43180000D01*
X59055000Y-52705000D02*
X62230000Y-49530000D01*
X104140000Y-50800000D02*
X99060000Y-45720000D01*
X78740000Y-46990000D02*
X78120000Y-47610000D01*
X43180000Y-48260000D02*
X48260000Y-43180000D01*
%TO.N,+5V*%
X48895000Y-45720000D02*
X64770000Y-45720000D01*
X64770000Y-45720000D02*
X71120000Y-45720000D01*
X100330000Y-63500000D02*
X102870000Y-66040000D01*
X64770000Y-49530000D02*
X64770000Y-45720000D01*
X74930000Y-46990000D02*
X73660000Y-48260000D01*
X100330000Y-54610000D02*
X99060000Y-54610000D01*
X46355000Y-55587500D02*
X46355000Y-48260000D01*
X50520000Y-79730000D02*
X50800000Y-80010000D01*
X100330000Y-60960000D02*
X100330000Y-63500000D01*
X46355000Y-55587500D02*
X50457500Y-55587500D01*
X41910000Y-79730000D02*
X45720000Y-79730000D01*
X46355000Y-48260000D02*
X48895000Y-45720000D01*
X50800000Y-71120000D02*
X45720000Y-66040000D01*
X74995000Y-54610000D02*
X72390000Y-54610000D01*
X71120000Y-45720000D02*
X73660000Y-48260000D01*
X50457500Y-55587500D02*
X51435000Y-54610000D01*
X45720000Y-66040000D02*
X45720000Y-62230000D01*
X102870000Y-66040000D02*
X104140000Y-66040000D01*
X83820000Y-54610000D02*
X88900000Y-54610000D01*
X50800000Y-80010000D02*
X50800000Y-76200000D01*
X73790000Y-62165000D02*
X74995000Y-60960000D01*
X73790000Y-66040000D02*
X73790000Y-62165000D01*
X88900000Y-49530000D02*
X83820000Y-54610000D01*
X74995000Y-54610000D02*
X74995000Y-60960000D01*
X102590000Y-54610000D02*
X100330000Y-54610000D01*
X73660000Y-48260000D02*
X74995000Y-49595000D01*
X74995000Y-49595000D02*
X74995000Y-54610000D01*
X45720000Y-79730000D02*
X50520000Y-79730000D01*
%TO.N,Net-(D1-K)*%
X106680000Y-48260000D02*
X114300000Y-48260000D01*
X114300000Y-48260000D02*
X115570000Y-49530000D01*
%TO.N,Net-(D1-A)*%
X105690000Y-54610000D02*
X113030000Y-54610000D01*
X113030000Y-54610000D02*
X115570000Y-52070000D01*
%TO.N,Net-(J1-Pin_2)*%
X95250000Y-71120000D02*
X78740000Y-71120000D01*
X95250000Y-71120000D02*
X104140000Y-71120000D01*
%TO.N,Net-(J1-Pin_3)*%
X104140000Y-68580000D02*
X95810000Y-68580000D01*
X95810000Y-68580000D02*
X95250000Y-68020000D01*
%TO.N,Net-(J2-Pin_1)*%
X73790000Y-68580000D02*
X71120000Y-68580000D01*
X68580000Y-66040000D02*
X68580000Y-50800000D01*
X68580000Y-50800000D02*
X67310000Y-49530000D01*
X71120000Y-68580000D02*
X68580000Y-66040000D01*
%TO.N,Net-(J3-Pin_4)*%
X41910000Y-83820000D02*
X45720000Y-87630000D01*
X58420000Y-82550000D02*
X53340000Y-87630000D01*
X41910000Y-82830000D02*
X41910000Y-83820000D01*
X82550000Y-73660000D02*
X81280000Y-72390000D01*
X58420000Y-80010000D02*
X58420000Y-82550000D01*
X53340000Y-87630000D02*
X68580000Y-87630000D01*
X68580000Y-87630000D02*
X82550000Y-73660000D01*
X45720000Y-87630000D02*
X50800000Y-87630000D01*
X50800000Y-87630000D02*
X53340000Y-87630000D01*
X81280000Y-72390000D02*
X78740000Y-72390000D01*
%TO.N,Net-(J3-Pin_3)*%
X52002081Y-85090000D02*
X55880000Y-81212081D01*
X55880000Y-81212081D02*
X55880000Y-80010000D01*
X45720000Y-82830000D02*
X45720000Y-83820000D01*
X55880000Y-80010000D02*
X59690000Y-76200000D01*
X59690000Y-76200000D02*
X76200000Y-76200000D01*
X45720000Y-83820000D02*
X46990000Y-85090000D01*
X46990000Y-85090000D02*
X52002081Y-85090000D01*
X76200000Y-76200000D02*
X78740000Y-73660000D01*
%TO.N,Net-(J4-Pin_1)*%
X56515000Y-50165000D02*
X55880000Y-49530000D01*
X56515000Y-54610000D02*
X56515000Y-50165000D01*
%TO.N,Net-(J4-Pin_2)*%
X53975000Y-54610000D02*
X53975000Y-50165000D01*
X53975000Y-50165000D02*
X53340000Y-49530000D01*
%TO.N,Net-(J5-Pin_2)*%
X93980000Y-59690000D02*
X85090000Y-68580000D01*
X85090000Y-68580000D02*
X78740000Y-68580000D01*
X93980000Y-49530000D02*
X93980000Y-59690000D01*
%TO.N,Net-(J5-Pin_3)*%
X83820000Y-66040000D02*
X83820000Y-67310000D01*
X83820000Y-67310000D02*
X78740000Y-67310000D01*
X91440000Y-58420000D02*
X83820000Y-66040000D01*
X91440000Y-49530000D02*
X91440000Y-58420000D01*
%TO.N,Net-(J5-Pin_1)*%
X96520000Y-60960000D02*
X96520000Y-49530000D01*
X78740000Y-69850000D02*
X87630000Y-69850000D01*
X87630000Y-69850000D02*
X96520000Y-60960000D01*
%TO.N,Net-(Q1-B)*%
X103580000Y-43180000D02*
X103580000Y-47700000D01*
X103580000Y-47700000D02*
X105410000Y-49530000D01*
X90450000Y-43180000D02*
X103580000Y-43180000D01*
X105410000Y-49530000D02*
X106680000Y-49530000D01*
%TO.N,Net-(U1-PA4)*%
X116840000Y-43180000D02*
X106680000Y-43180000D01*
X120650000Y-46990000D02*
X116840000Y-43180000D01*
X72815001Y-67310000D02*
X71120000Y-65614999D01*
X71120000Y-58420000D02*
X72390000Y-57150000D01*
X72815001Y-67310000D02*
X72602501Y-67097499D01*
X83820000Y-57150000D02*
X88900000Y-57150000D01*
X71120000Y-65614999D02*
X71120000Y-58420000D01*
X99060000Y-57150000D02*
X116840000Y-57150000D01*
X73790000Y-67310000D02*
X72815001Y-67310000D01*
X120650000Y-53340000D02*
X120650000Y-46990000D01*
X116840000Y-57150000D02*
X120650000Y-53340000D01*
%TO.N,Net-(U1-PB3)*%
X71120000Y-71120000D02*
X72390000Y-72390000D01*
X60325000Y-71120000D02*
X71120000Y-71120000D01*
X51435000Y-62230000D02*
X60325000Y-71120000D01*
X72390000Y-72390000D02*
X73790000Y-72390000D01*
%TO.N,Net-(U1-PB2)*%
X46355000Y-73660000D02*
X40640000Y-67945000D01*
X64770000Y-40640000D02*
X66040000Y-41910000D01*
X66040000Y-58420000D02*
X66040000Y-52070000D01*
X74360000Y-73660000D02*
X46355000Y-73660000D01*
X40640000Y-67945000D02*
X40640000Y-46990000D01*
X46990000Y-40640000D02*
X64770000Y-40640000D01*
X59055000Y-62230000D02*
X62230000Y-62230000D01*
X62230000Y-62230000D02*
X66040000Y-58420000D01*
X40640000Y-46990000D02*
X46990000Y-40640000D01*
%TO.N,Net-(U1-PA6)*%
X64135000Y-69850000D02*
X56515000Y-62230000D01*
X73790000Y-69850000D02*
X64135000Y-69850000D01*
X53975000Y-62230000D02*
X56515000Y-62230000D01*
%TD*%
M02*
